# ProBuilder 5.0.6
# https://unity3d.com/unity/features/worldbuilding/probuilder
# 8/01/2023 5:58:28 PM

mtllib ./Main_menu_house.mtl
o Main menu house

g Cube
v -1 0 0
v -7 0 0
v -1 3 0
v -7 3 0
v -7 0 -7
v -7 3 -7
v -1 0 -7
v -1 3 -7

vt 1 0
vt 7 0
vt 1 3
vt 7 3
vt 0 0
vt 0 3
vt -7 0
vt -1 0
vt -7 3
vt -1 3
vt -1 -7
vt -7 -7
vt 1 -7
vt 7 -7

vn 0 0 -1
vn 1 0 0
vn 0 0 1
vn -1 0 0
vn 0 -1 0
vn 0 1 0

usemtl Default
f 1/1/1 2/2/1 4/4/1 3/3/1
f 2/5/2 5/2/2 6/4/2 4/6/2
f 5/7/3 7/8/3 8/10/3 6/9/3
f 7/7/4 1/5/4 3/6/4 8/9/4
f 3/8/5 4/7/5 6/12/5 8/11/5
f 7/13/6 5/14/6 2/2/6 1/1/6

